# xmcd
#
# Track frame offsets:
#	150
#	31377
#	62217
#	83140
#	109312
#	133227
#	161907
#	189670
#	222625
#
# Disc length: 3291 seconds
#
# Revision: 1
# Processed by: cddbd v1.5.1PL0 Copyright (c) Steve Scherf et al.
# Submitted via: CDex 1.50Beta5
#
DISCID=8c0cd909
DTITLE=さまざまなアーティスト - TIME FOR TWO
DYEAR=1900
DGENRE=Jazz
TTITLE0=BODY AND SOUL
TTITLE1=THE SUMMER KNOWS
TTITLE2=NIGHT TRAIN
TTITLE3=RECUERDOS DE LA ALHAMBRA
TTITLE4=DESAFINADO
TTITLE5=WHAT ARE YOU DOING THE REST OF YOUR LIFE
TTITLE6=LIKE SOMEONE IN LOVE
TTITLE7=KILLER JOE
TTITLE8=AS TIME GOES BY
EXTD=
EXTT0=
EXTT1=
EXTT2=
EXTT3=
EXTT4=
EXTT5=
EXTT6=
EXTT7=
EXTT8=
PLAYORDER=
